<?xml version="1.0" ?><svg height="516px" version="1.1" viewBox="0 0 567 516" width="567px" xmlns="http://www.w3.org/2000/svg" xmlns:sketch="http://www.bohemiancoding.com/sketch/ns" xmlns:xlink="http://www.w3.org/1999/xlink"><title/><desc/><defs/><g fill="none" fill-rule="evenodd" id="Page-1" stroke="none" stroke-width="1"><path d="M447.845067,194.077971 L562.1294,106.511468 L396.4419,0.138761468 L280.302176,95.2006881 L447.687649,194.040369 L280.385491,298.507454 L396.440152,396.132454 L566.457737,287.15367 L447.845067,194.077971 L447.845067,194.077971 Z M0.210014668,286.800459 L113.317748,197.247706 L280.270714,298.518922 L165.284591,392.895642 L0.210014668,286.800459 L0.210014668,286.800459 Z M0.169230769,106.095183 L164.352388,0 L280.276831,95.2061353 L113.274925,197.22133 L0.169230769,106.095183 L0.169230769,106.095183 Z M114.900163,381.858945 L114.900163,417.911697 L280.703023,515.440367 L447.397303,417.361239 L447.397303,381.858945 L397.990523,413.552752 L281.084061,318.417431 L164.546985,413.512615 L114.900163,381.858945 L114.900163,381.858945 Z" fill="#4A4A4A" id="dropbox"/></g></svg>